<svg width="215" height="60" viewBox="0 0 215 60" fill="none" xmlns="http://www.w3.org/2000/svg">
<path d="M67.73 41L77.09 20H81.89L91.28 41H86.18L78.5 22.46H80.42L72.71 41H67.73ZM72.41 36.5L73.7 32.81H84.5L85.82 36.5H72.41ZM99.6458 41.24C98.3058 41.24 97.1058 40.98 96.0458 40.46C95.0058 39.94 94.1958 39.15 93.6158 38.09C93.0358 37.01 92.7458 35.64 92.7458 33.98V24.86H97.4258V33.29C97.4258 34.63 97.7058 35.62 98.2658 36.26C98.8458 36.88 99.6558 37.19 100.696 37.19C101.416 37.19 102.056 37.04 102.616 36.74C103.176 36.42 103.616 35.94 103.936 35.3C104.256 34.64 104.416 33.82 104.416 32.84V24.86H109.096V41H104.656V36.56L105.466 37.85C104.926 38.97 104.126 39.82 103.066 40.4C102.026 40.96 100.886 41.24 99.6458 41.24ZM113.431 41V24.86H117.901V29.42L117.271 28.1C117.751 26.96 118.521 26.1 119.581 25.52C120.641 24.92 121.931 24.62 123.451 24.62V28.94C123.251 28.92 123.071 28.91 122.911 28.91C122.751 28.89 122.581 28.88 122.401 28.88C121.121 28.88 120.081 29.25 119.281 29.99C118.501 30.71 118.111 31.84 118.111 33.38V41H113.431ZM135.08 41V37.85L134.78 37.16V31.52C134.78 30.52 134.47 29.74 133.85 29.18C133.25 28.62 132.32 28.34 131.06 28.34C130.2 28.34 129.35 28.48 128.51 28.76C127.69 29.02 126.99 29.38 126.41 29.84L124.73 26.57C125.61 25.95 126.67 25.47 127.91 25.13C129.15 24.79 130.41 24.62 131.69 24.62C134.15 24.62 136.06 25.2 137.42 26.36C138.78 27.52 139.46 29.33 139.46 31.79V41H135.08ZM130.16 41.24C128.9 41.24 127.82 41.03 126.92 40.61C126.02 40.17 125.33 39.58 124.85 38.84C124.37 38.1 124.13 37.27 124.13 36.35C124.13 35.39 124.36 34.55 124.82 33.83C125.3 33.11 126.05 32.55 127.07 32.15C128.09 31.73 129.42 31.52 131.06 31.52H135.35V34.25H131.57C130.47 34.25 129.71 34.43 129.29 34.79C128.89 35.15 128.69 35.6 128.69 36.14C128.69 36.74 128.92 37.22 129.38 37.58C129.86 37.92 130.51 38.09 131.33 38.09C132.11 38.09 132.81 37.91 133.43 37.55C134.05 37.17 134.5 36.62 134.78 35.9L135.5 38.06C135.16 39.1 134.54 39.89 133.64 40.43C132.74 40.97 131.58 41.24 130.16 41.24Z" fill="white"/>
<path d="M144.025 41V20H154.285C156.925 20 158.905 20.5 160.225 21.5C161.565 22.5 162.235 23.82 162.235 25.46C162.235 26.56 161.965 27.52 161.425 28.34C160.885 29.14 160.145 29.76 159.205 30.2C158.265 30.64 157.185 30.86 155.965 30.86L156.535 29.63C157.855 29.63 159.025 29.85 160.045 30.29C161.065 30.71 161.855 31.34 162.415 32.18C162.995 33.02 163.285 34.05 163.285 35.27C163.285 37.07 162.575 38.48 161.155 39.5C159.735 40.5 157.645 41 154.885 41H144.025ZM148.855 37.34H154.525C155.785 37.34 156.735 37.14 157.375 36.74C158.035 36.32 158.365 35.66 158.365 34.76C158.365 33.88 158.035 33.23 157.375 32.81C156.735 32.37 155.785 32.15 154.525 32.15H148.495V28.61H153.685C154.865 28.61 155.765 28.41 156.385 28.01C157.025 27.59 157.345 26.96 157.345 26.12C157.345 25.3 157.025 24.69 156.385 24.29C155.765 23.87 154.865 23.66 153.685 23.66H148.855V37.34ZM174.645 41.24C172.805 41.24 171.185 40.88 169.785 40.16C168.405 39.44 167.335 38.46 166.575 37.22C165.815 35.96 165.435 34.53 165.435 32.93C165.435 31.31 165.805 29.88 166.545 28.64C167.305 27.38 168.335 26.4 169.635 25.7C170.935 24.98 172.405 24.62 174.045 24.62C175.625 24.62 177.045 24.96 178.305 25.64C179.585 26.3 180.595 27.26 181.335 28.52C182.075 29.76 182.445 31.25 182.445 32.99C182.445 33.17 182.435 33.38 182.415 33.62C182.395 33.84 182.375 34.05 182.355 34.25H169.245V31.52H179.895L178.095 32.33C178.095 31.49 177.925 30.76 177.585 30.14C177.245 29.52 176.775 29.04 176.175 28.7C175.575 28.34 174.875 28.16 174.075 28.16C173.275 28.16 172.565 28.34 171.945 28.7C171.345 29.04 170.875 29.53 170.535 30.17C170.195 30.79 170.025 31.53 170.025 32.39V33.11C170.025 33.99 170.215 34.77 170.595 35.45C170.995 36.11 171.545 36.62 172.245 36.98C172.965 37.32 173.805 37.49 174.765 37.49C175.625 37.49 176.375 37.36 177.015 37.1C177.675 36.84 178.275 36.45 178.815 35.93L181.305 38.63C180.565 39.47 179.635 40.12 178.515 40.58C177.395 41.02 176.105 41.24 174.645 41.24ZM195.021 41V37.85L194.721 37.16V31.52C194.721 30.52 194.411 29.74 193.791 29.18C193.191 28.62 192.261 28.34 191.001 28.34C190.141 28.34 189.291 28.48 188.451 28.76C187.631 29.02 186.931 29.38 186.351 29.84L184.671 26.57C185.551 25.95 186.611 25.47 187.851 25.13C189.091 24.79 190.351 24.62 191.631 24.62C194.091 24.62 196.001 25.2 197.361 26.36C198.721 27.52 199.401 29.33 199.401 31.79V41H195.021ZM190.101 41.24C188.841 41.24 187.761 41.03 186.861 40.61C185.961 40.17 185.271 39.58 184.791 38.84C184.311 38.1 184.071 37.27 184.071 36.35C184.071 35.39 184.301 34.55 184.761 33.83C185.241 33.11 185.991 32.55 187.011 32.15C188.031 31.73 189.361 31.52 191.001 31.52H195.291V34.25H191.511C190.411 34.25 189.651 34.43 189.231 34.79C188.831 35.15 188.631 35.6 188.631 36.14C188.631 36.74 188.861 37.22 189.321 37.58C189.801 37.92 190.451 38.09 191.271 38.09C192.051 38.09 192.751 37.91 193.371 37.55C193.991 37.17 194.441 36.62 194.721 35.9L195.441 38.06C195.101 39.1 194.481 39.89 193.581 40.43C192.681 40.97 191.521 41.24 190.101 41.24ZM210.237 41.24C208.337 41.24 206.857 40.76 205.797 39.8C204.737 38.82 204.207 37.37 204.207 35.45V21.29H208.887V35.39C208.887 36.07 209.067 36.6 209.427 36.98C209.787 37.34 210.277 37.52 210.897 37.52C211.637 37.52 212.267 37.32 212.787 36.92L214.047 40.22C213.567 40.56 212.987 40.82 212.307 41C211.647 41.16 210.957 41.24 210.237 41.24ZM201.717 28.82V25.22H212.907V28.82H201.717Z" fill="#FF7F50"/>
<circle cx="30" cy="30" r="30" fill="#FF7F50"/>
<rect x="14.4913" y="19.1388" width="3.09827" height="23.237" rx="1.54914" fill="#111111"/>
<rect x="23.7862" y="14.4914" width="3.09827" height="30.9827" rx="1.54914" fill="#111111"/>
<rect x="33.0811" y="14.4914" width="3.09827" height="30.9827" rx="1.54914" fill="#111111"/>
<rect x="42.3757" y="19.1388" width="3.09827" height="23.237" rx="1.54914" fill="#111111"/>
<rect x="47.0233" y="25.3353" width="3.09827" height="9.29482" rx="1.54914" fill="#111111"/>
<rect x="9.84399" y="25.3353" width="3.09827" height="9.29482" rx="1.54914" fill="#111111"/>
<rect x="19.1387" y="22.237" width="3.09827" height="15.4914" rx="1.54914" fill="#111111"/>
<rect x="28.4335" y="9.84393" width="3.09827" height="40.2775" rx="1.54914" fill="#111111"/>
<rect x="37.7284" y="22.237" width="3.09827" height="15.4914" rx="1.54914" fill="#111111"/>
<rect y="29" width="10" height="2" fill="#111111"/>
<rect x="50" y="29" width="10" height="2" fill="#111111"/>
</svg>
